<?xml version="1.0" encoding="UTF-8"?>
<svg id="Layer_2" data-name="Layer 2" xmlns="http://www.w3.org/2000/svg" viewBox="0 0 154.35 24.26">
  <defs>
    <style>
      .cls-1 {
        fill: #fff;
      }
    </style>
  </defs>
  <g id="Layer_1-2" data-name="Layer 1">
    <g>
      <path class="cls-1" d="M151.44,6.81h-.55v-.19h1.31v.19h-.56v1.69h-.21v-1.69ZM152.8,6.61l.67,1.05.67-1.05h.22v1.88h-.21v-1.53l-.68,1.06-.68-1.06v1.53h-.21v-1.88h.22Z"/>
      <g>
        <path class="cls-1" d="M51.28,0h22.05v3.5h-18.08v6.43h17.48v3.5h-17.48v6.9h18.08v3.5h-22.05V0Z"/>
        <path class="cls-1" d="M83.23,14.87l-8-8.29h4.97l5.47,6.04,5.47-6.04h4.93l-8,8.29,8.47,8.97h-4.93l-5.93-6.72-5.97,6.72h-4.93l8.47-8.97Z"/>
        <path class="cls-1" d="M107.25,9.33c-2.68,0-4.93.75-6.75,2.32l-1.89-2.39c2.36-2.07,5.15-3.11,8.79-3.11,4.29,0,8.58,1.61,8.58,6.43v11.26h-3.61v-1.86c-1.64,1.36-3.93,2.29-6.97,2.29-3.47,0-7.79-1.79-7.79-5.68,0-4.22,4.29-5.68,7.79-5.68,3.04,0,5.36.86,6.97,2.25v-2.54c0-2.04-1.86-3.29-5.11-3.29ZM106.5,21.73c2.32,0,4.5-.61,5.86-1.75v-2.79c-1.36-1.11-3.54-1.68-5.86-1.68-3.29,0-5.15,1.14-5.15,3.11s1.86,3.11,5.15,3.11Z"/>
        <path class="cls-1" d="M141.84,9.33c-1.93,0-4,1.04-5.15,2.29v12.22h-3.57v-10.76c0-2.29-1.07-3.75-4.18-3.75-1.89,0-4.04,1-5.22,2.29v12.22h-3.57V6.58h3.57v2.72c1.04-1.14,3.61-3.14,6.68-3.14,3.25,0,5.11,1.57,5.83,3.25,1.57-1.71,4.15-3.25,7.18-3.25,3.93,0,6.29,2,6.29,6.29v11.4h-3.57v-10.76c0-2.29-.93-3.75-4.29-3.75Z"/>
      </g>
      <g>
        <path class="cls-1" d="M44.64,9.16c-.85-.79-1.85-1.42-2.98-1.87-1.13-.45-2.35-.68-3.65-.68h-5.07c-1.3,0-2.52.23-3.65.68-1.12.45-2.13,1.08-2.98,1.87-.85.79-1.52,1.71-2,2.74-.48,1.03-.72,2.16-.72,3.34s.24,2.31.72,3.34c.48,1.03,1.15,1.95,2,2.74.85.79,1.85,1.42,2.98,1.87,1.13.45,2.35.68,3.65.68h5.07c1.3,0,2.52-.23,3.65-.68,1.12-.45,2.13-1.08,2.98-1.87.85-.79,1.52-1.71,2-2.74.48-1.03.72-2.16.72-3.34s-.24-2.31-.72-3.34c-.48-1.03-1.15-1.95-2-2.74ZM38.02,20.19h-5.07c-.98,0-1.88-.23-2.67-.68-.8-.45-1.45-1.06-1.94-1.8-.48-.74-.72-1.57-.72-2.47s.24-1.73.72-2.47c.48-.74,1.13-1.35,1.94-1.8.79-.45,1.69-.68,2.67-.68h5.07c.98,0,1.89.23,2.69.68.81.45,1.46,1.06,1.93,1.8.47.74.71,1.57.71,2.47s-.24,1.73-.71,2.47c-.47.74-1.12,1.35-1.93,1.8-.81.45-1.71.68-2.69.68Z"/>
        <polygon class="cls-1" points="14.71 15.16 23.61 6.73 23.74 6.61 18.24 6.61 11.96 12.55 5.68 6.61 .18 6.61 9.21 15.16 .13 23.75 0 23.87 5.5 23.87 11.96 17.76 18.41 23.87 23.92 23.87 14.71 15.16"/>
      </g>
    </g>
  </g>
</svg>